<svg width="506" height="578" viewBox="0 0 506 578" fill="none" xmlns="http://www.w3.org/2000/svg">
<g clip-path="url(#clip0_51_5)">
<path d="M210.304 4.77667C248.26 3.99195 285.272 0 323.601 0C372.986 0 473.862 16.4126 493.052 73.9826C498.905 91.5418 498.356 107.086 502.568 123.932C505.964 137.517 507.119 158.045 502.568 171.699C490.196 208.815 455.725 301.832 469.131 340.898C478.071 366.95 509.938 506.813 488.48 528.271C474.772 541.979 454.827 560.945 438.81 568.761C406.71 584.426 277.038 573.332 233.87 573.332C196.773 573.332 117.277 581.767 85.8305 566.167C56.8785 551.805 34.5739 528.149 18.985 496.971C-26.8394 405.322 21.4074 372.725 47.3559 295.184C71.1335 224.13 -3.65406 52.8476 93.9005 20.0303C111.517 14.1042 204.003 -0.795087 210.304 4.77667Z" fill="white"/>
</g>
<defs>
<clipPath id="clip0_51_5">
<rect width="505.564" height="577.144" fill="white"/>
</clipPath>
</defs>
</svg>
